# xmcd CD database file
#
# Track frame offsets:
#	150
#	23400
#	50182
#	68722
#	88919
#	116886
#	143796
#	168131
#
# Disc length: 2896 seconds
#
# Revision: 0
# Processed by: cddbd v1.5.2PL0 Copyright (c) Steve Scherf et al.
# Submitted via: CDex 1.70beta2
#
DISCID=6a0b4e08
DTITLE=Demetori - 如臨深遠 ～雨縒煙柳～
DYEAR=2006
DGENRE=東方アレンジ
TTITLE0=幻視の夜 ～ Ghostly Eyes
TTITLE1=優雅に咲かせ、墨染の桜 ～ Border of Life
TTITLE2=風の循環 ～ Wind Tour
TTITLE3=無何有の郷 ～ Deep Mountain
TTITLE4=東の国の眠らない夜
TTITLE5=メイドと血の懐中時計
TTITLE6=さくらさくら ～ Japanize Dream
TTITLE7=紅楼 ～ Eastern Dream
EXTD=YEAR: 2006
EXTT0=
EXTT1=
EXTT2=
EXTT3=
EXTT4=
EXTT5=
EXTT6=
EXTT7=
PLAYORDER=
